<?xml version="1.0" encoding="UTF-8" standalone="no" ?>
<!DOCTYPE svg PUBLIC "-//W3C//DTD SVG 1.1//EN" "http://www.w3.org/Graphics/SVG/1.1/DTD/svg11.dtd">
<svg xmlns="http://www.w3.org/2000/svg" xmlns:xlink="http://www.w3.org/1999/xlink" version="1.1" width="1920" height="1080" viewBox="0 0 1920 1080" xml:space="preserve">
<desc>Created with Fabric.js 3.6.6</desc>
<defs>
</defs>
<g transform="matrix(1 0 0 1 262.5 226)"  >
<path style="stroke: rgb(0,0,0); stroke-width: 1; stroke-dasharray: none; stroke-linecap: round; stroke-dashoffset: 0; stroke-linejoin: round; stroke-miterlimit: 10; fill: none; fill-rule: nonzero; opacity: 1;"  transform=" translate(-262.5, -226)" d="M 262.499 226 L 262.501 226" stroke-linecap="round" />
</g>
<g transform="matrix(1 0 0 1 960 540)"  >
<g style=""   >
		<g transform="matrix(1 0 0 1 0 0)"  >
<rect style="stroke: none; stroke-width: 1; stroke-dasharray: none; stroke-linecap: butt; stroke-dashoffset: 0; stroke-linejoin: miter; stroke-miterlimit: 4; fill: rgb(255,241,220); fill-rule: nonzero; opacity: 1;"  x="-960" y="-540" rx="0" ry="0" width="1920" height="1080" />
</g>
		<g transform="matrix(1 0 0 1 0 314.81)"  >
<path style="stroke: none; stroke-width: 1; stroke-dasharray: none; stroke-linecap: butt; stroke-dashoffset: 0; stroke-linejoin: miter; stroke-miterlimit: 4; fill: rgb(255,207,134); fill-rule: nonzero; opacity: 1;"  transform=" translate(-960, -854.81)" d="M 0 691 L 22.8 692.3 C 45.7 693.7 91.3 696.3 137 700 C 182.7 703.7 228.3 708.3 274 693.7 C 319.7 679 365.3 645 411.2 633.5 C 457 622 503 633 548.8 644 C 594.7 655 640.3 666 686 672.5 C 731.7 679 777.3 681 823 690.8 C 868.7 700.7 914.3 718.3 960 707.2 C 1005.7 696 1051.3 656 1097 656.7 C 1142.7 657.3 1188.3 698.7 1234 706.7 C 1279.7 714.7 1325.3 689.3 1371.2 671.5 C 1417 653.7 1463 643.3 1508.8 643.5 C 1554.7 643.7 1600.3 654.3 1646 668.7 C 1691.7 683 1737.3 701 1783 695.3 C 1828.7 689.7 1874.3 660.3 1897.2 645.7 L 1920 631 L 1920 1081 L 1897.2 1081 C 1874.3 1081 1828.7 1081 1783 1081 C 1737.3 1081 1691.7 1081 1646 1081 C 1600.3 1081 1554.7 1081 1508.8 1081 C 1463 1081 1417 1081 1371.2 1081 C 1325.3 1081 1279.7 1081 1234 1081 C 1188.3 1081 1142.7 1081 1097 1081 C 1051.3 1081 1005.7 1081 960 1081 C 914.3 1081 868.7 1081 823 1081 C 777.3 1081 731.7 1081 686 1081 C 640.3 1081 594.7 1081 548.8 1081 C 503 1081 457 1081 411.2 1081 C 365.3 1081 319.7 1081 274 1081 C 228.3 1081 182.7 1081 137 1081 C 91.3 1081 45.7 1081 22.8 1081 L 0 1081 Z" stroke-linecap="round" />
</g>
		<g transform="matrix(1 0 0 1 0 354.89)"  >
<path style="stroke: none; stroke-width: 1; stroke-dasharray: none; stroke-linecap: butt; stroke-dashoffset: 0; stroke-linejoin: miter; stroke-miterlimit: 4; fill: rgb(253,193,114); fill-rule: nonzero; opacity: 1;"  transform=" translate(-960, -894.9)" d="M 0 714 L 22.8 717.5 C 45.7 721 91.3 728 137 735 C 182.7 742 228.3 749 274 752.7 C 319.7 756.3 365.3 756.7 411.2 754.7 C 457 752.7 503 748.3 548.8 749.3 C 594.7 750.3 640.3 756.7 686 764.3 C 731.7 772 777.3 781 823 770 C 868.7 759 914.3 728 960 715.7 C 1005.7 703.3 1051.3 709.7 1097 718.5 C 1142.7 727.3 1188.3 738.7 1234 739.8 C 1279.7 741 1325.3 732 1371.2 742 C 1417 752 1463 781 1508.8 791.3 C 1554.7 801.7 1600.3 793.3 1646 790.8 C 1691.7 788.3 1737.3 791.7 1783 786.2 C 1828.7 780.7 1874.3 766.3 1897.2 759.2 L 1920 752 L 1920 1081 L 1897.2 1081 C 1874.3 1081 1828.7 1081 1783 1081 C 1737.3 1081 1691.7 1081 1646 1081 C 1600.3 1081 1554.7 1081 1508.8 1081 C 1463 1081 1417 1081 1371.2 1081 C 1325.3 1081 1279.7 1081 1234 1081 C 1188.3 1081 1142.7 1081 1097 1081 C 1051.3 1081 1005.7 1081 960 1081 C 914.3 1081 868.7 1081 823 1081 C 777.3 1081 731.7 1081 686 1081 C 640.3 1081 594.7 1081 548.8 1081 C 503 1081 457 1081 411.2 1081 C 365.3 1081 319.7 1081 274 1081 C 228.3 1081 182.7 1081 137 1081 C 91.3 1081 45.7 1081 22.8 1081 L 0 1081 Z" stroke-linecap="round" />
</g>
		<g transform="matrix(1 0 0 1 0 407.12)"  >
<path style="stroke: none; stroke-width: 1; stroke-dasharray: none; stroke-linecap: butt; stroke-dashoffset: 0; stroke-linejoin: miter; stroke-miterlimit: 4; fill: rgb(252,178,95); fill-rule: nonzero; opacity: 1;"  transform=" translate(-960, -947.12)" d="M 0 838 L 22.8 847 C 45.7 856 91.3 874 137 864.5 C 182.7 855 228.3 818 274 813.7 C 319.7 809.3 365.3 837.7 411.2 842.5 C 457 847.3 503 828.7 548.8 833.3 C 594.7 838 640.3 866 686 877.3 C 731.7 888.7 777.3 883.3 823 872.8 C 868.7 862.3 914.3 846.7 960 847.3 C 1005.7 848 1051.3 865 1097 875.3 C 1142.7 885.7 1188.3 889.3 1234 888.3 C 1279.7 887.3 1325.3 881.7 1371.2 870.2 C 1417 858.7 1463 841.3 1508.8 832.2 C 1554.7 823 1600.3 822 1646 823 C 1691.7 824 1737.3 827 1783 838.5 C 1828.7 850 1874.3 870 1897.2 880 L 1920 890 L 1920 1081 L 1897.2 1081 C 1874.3 1081 1828.7 1081 1783 1081 C 1737.3 1081 1691.7 1081 1646 1081 C 1600.3 1081 1554.7 1081 1508.8 1081 C 1463 1081 1417 1081 1371.2 1081 C 1325.3 1081 1279.7 1081 1234 1081 C 1188.3 1081 1142.7 1081 1097 1081 C 1051.3 1081 1005.7 1081 960 1081 C 914.3 1081 868.7 1081 823 1081 C 777.3 1081 731.7 1081 686 1081 C 640.3 1081 594.7 1081 548.8 1081 C 503 1081 457 1081 411.2 1081 C 365.3 1081 319.7 1081 274 1081 C 228.3 1081 182.7 1081 137 1081 C 91.3 1081 45.7 1081 22.8 1081 L 0 1081 Z" stroke-linecap="round" />
</g>
		<g transform="matrix(1 0 0 1 0 433.65)"  >
<path style="stroke: none; stroke-width: 1; stroke-dasharray: none; stroke-linecap: butt; stroke-dashoffset: 0; stroke-linejoin: miter; stroke-miterlimit: 4; fill: rgb(251,162,77); fill-rule: nonzero; opacity: 1;"  transform=" translate(-960, -973.65)" d="M 0 897 L 22.8 898.5 C 45.7 900 91.3 903 137 902 C 182.7 901 228.3 896 274 890 C 319.7 884 365.3 877 411.2 872.3 C 457 867.7 503 865.3 548.8 866.7 C 594.7 868 640.3 873 686 875.8 C 731.7 878.7 777.3 879.3 823 877 C 868.7 874.7 914.3 869.3 960 872.7 C 1005.7 876 1051.3 888 1097 888.5 C 1142.7 889 1188.3 878 1234 882.2 C 1279.7 886.3 1325.3 905.7 1371.2 918.7 C 1417 931.7 1463 938.3 1508.8 932.8 C 1554.7 927.3 1600.3 909.7 1646 910.7 C 1691.7 911.7 1737.3 931.3 1783 942.7 C 1828.7 954 1874.3 957 1897.2 958.5 L 1920 960 L 1920 1081 L 1897.2 1081 C 1874.3 1081 1828.7 1081 1783 1081 C 1737.3 1081 1691.7 1081 1646 1081 C 1600.3 1081 1554.7 1081 1508.8 1081 C 1463 1081 1417 1081 1371.2 1081 C 1325.3 1081 1279.7 1081 1234 1081 C 1188.3 1081 1142.7 1081 1097 1081 C 1051.3 1081 1005.7 1081 960 1081 C 914.3 1081 868.7 1081 823 1081 C 777.3 1081 731.7 1081 686 1081 C 640.3 1081 594.7 1081 548.8 1081 C 503 1081 457 1081 411.2 1081 C 365.3 1081 319.7 1081 274 1081 C 228.3 1081 182.7 1081 137 1081 C 91.3 1081 45.7 1081 22.8 1081 L 0 1081 Z" stroke-linecap="round" />
</g>
		<g transform="matrix(1 0 0 1 0 475.5)"  >
<path style="stroke: none; stroke-width: 1; stroke-dasharray: none; stroke-linecap: butt; stroke-dashoffset: 0; stroke-linejoin: miter; stroke-miterlimit: 4; fill: rgb(250,146,61); fill-rule: nonzero; opacity: 1;"  transform=" translate(-960, -1015.5)" d="M 0 950 L 22.8 952.7 C 45.7 955.3 91.3 960.7 137 973 C 182.7 985.3 228.3 1004.7 274 1006.5 C 319.7 1008.3 365.3 992.7 411.2 980.2 C 457 967.7 503 958.3 548.8 966 C 594.7 973.7 640.3 998.3 686 1002 C 731.7 1005.7 777.3 988.3 823 980 C 868.7 971.7 914.3 972.3 960 971 C 1005.7 969.7 1051.3 966.3 1097 976 C 1142.7 985.7 1188.3 1008.3 1234 1008.2 C 1279.7 1008 1325.3 985 1371.2 974.8 C 1417 964.7 1463 967.3 1508.8 965 C 1554.7 962.7 1600.3 955.3 1646 963 C 1691.7 970.7 1737.3 993.3 1783 996.5 C 1828.7 999.7 1874.3 983.3 1897.2 975.2 L 1920 967 L 1920 1081 L 1897.2 1081 C 1874.3 1081 1828.7 1081 1783 1081 C 1737.3 1081 1691.7 1081 1646 1081 C 1600.3 1081 1554.7 1081 1508.8 1081 C 1463 1081 1417 1081 1371.2 1081 C 1325.3 1081 1279.7 1081 1234 1081 C 1188.3 1081 1142.7 1081 1097 1081 C 1051.3 1081 1005.7 1081 960 1081 C 914.3 1081 868.7 1081 823 1081 C 777.3 1081 731.7 1081 686 1081 C 640.3 1081 594.7 1081 548.8 1081 C 503 1081 457 1081 411.2 1081 C 365.3 1081 319.7 1081 274 1081 C 228.3 1081 182.7 1081 137 1081 C 91.3 1081 45.7 1081 22.8 1081 L 0 1081 Z" stroke-linecap="round" />
</g>
</g>
</g>
<g transform="matrix(0.51 0 0 0.51 339.48 197.88)"  >
<linearGradient id="SVGID_6135" gradientUnits="userSpaceOnUse" gradientTransform="matrix(1 0 0 1 -322 -322.3)"  x1="45.08003500466807" y1="154.63199999999998" x2="598.9204650620186" y2="489.66799999999995">
<stop offset="34.158%" style="stop-color:rgba(255, 191, 79, 0.36);"/>
<stop offset="92.574%" style="stop-color:rgba(255, 191, 79, 0.93);"/>
</linearGradient>
<path style="stroke: none; stroke-width: 1; stroke-dasharray: none; stroke-linecap: butt; stroke-dashoffset: 0; stroke-linejoin: miter; stroke-miterlimit: 4; fill: url(#SVGID_6135); fill-rule: nonzero; opacity: 1;"  transform=" translate(0, 0.15)" d="M 161 -278.9 C 209.6 -250.7 250.7 -209.6 278.8 -161 C 306.9 -112.3 322 -56.2 322 0 C 322 56.2 306.9 112.3 278.8 161 C 250.7 209.6 209.6 250.7 161 278.8 C 112.3 306.9 56.2 322 0 322 C -56.2 322 -112.3 306.9 -161 278.9 C -209.8 250.8 -251 209.8 -279.1 161.1 C -307.2 112.5 -322.1 56.3 -322 0 C -322 -56.2 -306.9 -112.3 -278.8 -161 C -250.7 -209.6 -209.6 -250.7 -161 -278.9 C -112.3 -307.1 -56.2 -322.3 0 -322.3 C 56.2 -322.3 112.3 -307.1 161 -278.9" stroke-linecap="round" />
</g>
</svg>